HIERARCHY
ROOT Hips
{
	OFFSET 0.00 0.00 0.00
	CHANNELS 6 Xposition Yposition Zposition Yrotation Xrotation Zrotation
	JOINT Spine
	{
		OFFSET	0.0000	9.2263	1.5771
		CHANNELS 3 Xrotation Yrotation Zrotation
		JOINT Spine1
		{
			OFFSET	0.0000	16.2540	-0.1656
			CHANNELS 3 Xrotation Yrotation Zrotation
			JOINT Spine2
			{
				OFFSET	0.0000	13.6396	-1.2923
				CHANNELS 3 Xrotation Yrotation Zrotation
				JOINT Neck
				{
					OFFSET	0.0000	13.8774	-4.3542
					CHANNELS 3 Xrotation Yrotation Zrotation
					JOINT Neck1
					{
						OFFSET	0.0000	4.3400	0.9269
						CHANNELS 3 Xrotation Yrotation Zrotation
						JOINT Head
						{
							OFFSET	0.0000	4.0266	0.8585
							CHANNELS 3 Xrotation Yrotation Zrotation
							End Site
							{
								OFFSET 0.0000 23.0297 0.1231
							}
						}
					}
				}
				JOINT LeftShoulder
				{
					OFFSET	6.1442	10.1870	-3.7932
					CHANNELS 3 Zrotation Xrotation Yrotation
					JOINT LeftArm
					{
						OFFSET	12.3191	-1.1130	-1.7935
						CHANNELS 3 Zrotation Xrotation Yrotation
						JOINT LeftForeArm
						{
							OFFSET	27.6870	0.0000	0.0000
							CHANNELS 3 Xrotation Zrotation Yrotation
							JOINT LeftHand
							{
								OFFSET	27.8738	0.0000	0.0000
								CHANNELS 3 Zrotation Yrotation Xrotation
								JOINT LeftHandThumb1
								{
									OFFSET	2.3785	-1.0029	2.6209
									CHANNELS 3 Zrotation Xrotation Yrotation
									JOINT LeftHandThumb2
									{
										OFFSET	3.3624	-1.0029	2.8398
										CHANNELS 3 Zrotation Xrotation Yrotation
										JOINT LeftHandThumb3
										{
											OFFSET	4.5018	-1.3445	2.1783
											CHANNELS 3 Zrotation Xrotation Yrotation
											End Site
											{
												OFFSET 2.6000 -1.0000 1.0000
											}
										}
									}
								}
								JOINT LeftHandMiddle1
								{
									OFFSET	10.4639	0.6148	0.4298
									CHANNELS 3 Zrotation Xrotation Yrotation
									JOINT LeftHandMiddle2
									{
										OFFSET	5.7921	0.0000	0.0000
										CHANNELS 3 Zrotation Xrotation Yrotation
										JOINT LeftHandMiddle3
										{
											OFFSET	3.7132	0.0000	0.0000
											CHANNELS 3 Zrotation Xrotation Yrotation
											End Site
											{
												OFFSET 2.3000 0.0000 0.0000
											}
										}
									}
								}
								JOINT LeftHandIndex1
								{
									OFFSET	10.3945	0.6148	2.7055
									CHANNELS 3 Zrotation Xrotation Yrotation
									JOINT LeftHandIndex2
									{
										OFFSET	5.5493	0.0000	0.0000
										CHANNELS 3 Zrotation Xrotation Yrotation
										JOINT LeftHandIndex3
										{
											OFFSET	3.3911	0.0000	0.0000
											CHANNELS 3 Zrotation Xrotation Yrotation
											End Site
											{
												OFFSET 2.5000 0.0000 0.0000
											}
										}
									}
								}
								JOINT LeftHandRing1
								{
									OFFSET	10.3252	0.3211	-1.8755
									CHANNELS 3 Zrotation Xrotation Yrotation
									JOINT LeftHandRing2
									{
										OFFSET	5.4452	0.0000	0.0000
										CHANNELS 3 Zrotation Xrotation Yrotation
										JOINT LeftHandRing3
										{
											OFFSET	3.7132	0.0000	0.0000
											CHANNELS 3 Zrotation Xrotation Yrotation
											End Site
											{
												OFFSET 2.0000 0.0000 0.0000
											}
										}
									}
								}
								JOINT LeftHandPinky1
								{
									OFFSET	10.0130	-0.0783	-3.9671
									CHANNELS 3 Zrotation Xrotation Yrotation
									JOINT LeftHandPinky2
									{
										OFFSET	3.6763	0.0000	0.0000
										CHANNELS 3 Zrotation Xrotation Yrotation
										JOINT LeftHandPinky3
										{
											OFFSET	2.8113	0.0000	0.0000
											CHANNELS 3 Zrotation Xrotation Yrotation
											End Site
											{
												OFFSET 2.9000 0.0000 0.0000
											}
										}
									}
								}
							}
						}
					}
				}
				JOINT RightShoulder
				{
					OFFSET	-6.1402	10.1870	-3.7932
					CHANNELS 3 Zrotation Xrotation Yrotation
					JOINT RightArm
					{
						OFFSET	-12.3231	-1.1130	-1.7935
						CHANNELS 3 Zrotation Xrotation Yrotation
						JOINT RightForeArm
						{
							OFFSET	-27.6870	0.0000	0.0000
							CHANNELS 3 Xrotation Zrotation Yrotation
							JOINT RightHand
							{
								OFFSET	-27.8738	0.0000	0.0000
								CHANNELS 3 Zrotation Yrotation Xrotation
								JOINT RightHandThumb1
								{
									OFFSET	-2.5178	-0.9367	2.5137
									CHANNELS 3 Zrotation Xrotation Yrotation
									JOINT RightHandThumb2
									{
										OFFSET	-3.2638	-1.0870	2.9669
										CHANNELS 3 Zrotation Xrotation Yrotation
										JOINT RightHandThumb3
										{
											OFFSET	-4.4165	-1.3703	2.1350
											CHANNELS 3 Zrotation Xrotation Yrotation
											End Site
											{
												OFFSET -2.6000 -1.0000 1.0000
											}
										}
									}
								}
								JOINT RightHandIndex1
								{
									OFFSET	-10.4665	0.4896	2.7120
									CHANNELS 3 Zrotation Xrotation Yrotation
									JOINT RightHandIndex2
									{
										OFFSET	-5.3768	0.0000	0.0000
										CHANNELS 3 Zrotation Xrotation Yrotation
										JOINT RightHandIndex3
										{
											OFFSET	-3.3855	0.0000	0.0000
											CHANNELS 3 Zrotation Xrotation Yrotation
											End Site
											{
												OFFSET -2.6000 0.0000 0.0000
											}
										}
									}
								}
								JOINT RightHandMiddle1
								{
									OFFSET	-10.7596	0.4896	0.4278
									CHANNELS 3 Zrotation Xrotation Yrotation
									JOINT RightHandMiddle2
									{
										OFFSET	-5.6168	0.0000	0.0000
										CHANNELS 3 Zrotation Xrotation Yrotation
										JOINT RightHandMiddle3
										{
											OFFSET	-3.7364	0.0000	0.0000
											CHANNELS 3 Zrotation Xrotation Yrotation
											End Site
											{
												OFFSET -2.3000 0.0000 0.0000
											}
										}
									}
								}
								JOINT RightHandRing1
								{
									OFFSET	-10.4702	0.3879	-1.9363
									CHANNELS 3 Zrotation Xrotation Yrotation
									JOINT RightHandRing2
									{
										OFFSET	-5.4013	0.0000	0.0000
										CHANNELS 3 Zrotation Xrotation Yrotation
										JOINT RightHandRing3
										{
											OFFSET	-3.3916	0.0000	0.0000
											CHANNELS 3 Zrotation Xrotation Yrotation
											End Site
											{
												OFFSET -2.2000 0.0000 0.0000
											}
										}
									}
								}
								JOINT RightHandPinky1
								{
									OFFSET	-9.9715	-0.1191	-3.9540
									CHANNELS 3 Zrotation Xrotation Yrotation
									JOINT RightHandPinky2
									{
										OFFSET	-3.6528	0.0000	0.0000
										CHANNELS 3 Zrotation Xrotation Yrotation
										JOINT RightHandPinky3
										{
											OFFSET	-2.7820	0.0000	0.0000
											CHANNELS 3 Zrotation Xrotation Yrotation
											End Site
											{
												OFFSET -2.9000 0.0000 0.0000
											}
										}
									}
								}
							}
						}
					}
				}
			}
		}
	}
	JOINT LeftUpLeg
	{
		OFFSET	9.6338	-3.2733	0.0000
		CHANNELS 3 Xrotation Yrotation Zrotation
		JOINT LeftLeg
		{
			OFFSET	0.0000	-41.7300	-1.7300
			CHANNELS 3 Xrotation Yrotation Zrotation
			JOINT LeftFoot
			{
				OFFSET	0.0126	-39.1900	-0.8477
				CHANNELS 3 Xrotation Yrotation Zrotation
				JOINT LeftToeBase
				{
					OFFSET	-0.1833	-12.1931	8.2823
					CHANNELS 3 Xrotation Yrotation Zrotation
					End Site
					{
						OFFSET 0.0000 0.0000 10.1681
					}
				}
			}
		}
	}
	JOINT RightUpLeg
	{
		OFFSET	-9.6338	-3.2733	0.0000
		CHANNELS 3 Xrotation Yrotation Zrotation
		JOINT RightLeg
		{
			OFFSET	0.0000	-41.7300	-1.7300
			CHANNELS 3 Xrotation Yrotation Zrotation
			JOINT RightFoot
			{
				OFFSET	0.0126	-39.1900	-0.8477
				CHANNELS 3 Xrotation Yrotation Zrotation
				JOINT RightToeBase
				{
					OFFSET	-0.1833	-12.1931	8.2823
					CHANNELS 3 Xrotation Yrotation Zrotation
					End Site
					{
						OFFSET 0.0032 0.0000 10.1681
					}
				}
			}
		}
	}
}
MOTION
Frames: 4
Frame Time: 0.0333333
-17.0056 93.4893 355.6425 144.6162 -0.1906 0.3312 11.0868 0.1663 -1.4875 1.7357 0.1485 -0.1799 1.7330 0.1777 -0.1905 1.5796 0.9820 0.9966 -0.0000 0.0000 -0.0000 -4.4308 16.0869 -4.2628 -12.8030 0.5276 0.8468 -49.1013 25.1308 9.1336 -0.0000 -0.0000 -108.3549 -16.1439 13.1557 20.3538 1.1146 7.9327 8.1555 2.0779 4.5198 -4.2949 13.5725 -8.3426 -41.8612 -14.9145 0.0007 -3.6214 -14.0452 0.0005 -0.0037 -4.3171 0.0000 -0.0011 -2.1026 -0.0000 -5.5092 -7.0718 0.0001 -0.0018 5.0153 0.0000 0.0013 -25.1571 0.0018 -1.0327 -17.5799 0.0007 -0.0045 -14.2531 0.0005 -0.0037 -32.6331 0.0029 0.3125 -23.6242 0.0013 -0.0060 -19.5378 0.0009 -0.0050 16.3468 2.5024 7.3030 56.3567 -11.4841 36.3379 0.0000 -0.0000 142.3751 -0.1584 14.6019 -1.4003 1.5015 19.4611 -15.5150 -5.4770 -0.2448 -8.1146 -17.3992 -18.0706 -3.9951 13.9160 0.0002 8.3145 19.8841 0.0005 0.0027 6.6637 0.0001 0.0009 19.1119 0.0005 3.9308 34.9287 0.0014 0.0045 20.1129 0.0005 0.0027 26.6579 0.0010 1.7314 52.2584 0.0031 0.0063 27.9378 0.0009 0.0037 38.1296 0.0019 1.3516 39.9139 0.0018 0.0051 27.1507 0.0009 0.0036 -19.9613 7.2823 -1.8472 30.2819 2.3366 -0.0269 -10.3115 -0.7160 3.5188 -0.2103 0.0000 0.0000 -7.5465 -11.4762 -14.9118 33.0343 -9.2475 -9.0669 0.3653 -3.8762 19.4138 -5.4786 0.0000 -0.0000 
-16.9854 93.4174 354.0866 145.8362 -0.7566 0.2964 11.1795 -0.0024 -1.5614 1.7185 0.1045 -0.2246 1.7164 0.1342 -0.2341 1.5071 0.9911 1.1535 -0.0000 0.0000 -0.0000 -4.5050 16.4320 -3.9279 -12.0790 0.5680 0.5460 -49.9205 24.1114 9.7623 -0.0000 0.0000 -108.8806 -15.9616 13.1901 17.9528 1.0272 7.7934 7.4527 1.9809 4.3532 -4.9957 13.3420 -8.4403 -42.5780 -14.1837 0.0007 -3.6162 -13.3078 0.0004 -0.0035 -3.5851 0.0000 -0.0009 -1.3744 -0.0000 -5.5032 -6.3515 0.0001 -0.0017 5.7451 0.0001 0.0015 -24.4230 0.0017 -1.0308 -16.8460 0.0006 -0.0044 -13.5206 0.0004 -0.0035 -31.8988 0.0027 0.3128 -22.8888 0.0012 -0.0058 -18.8033 0.0008 -0.0048 16.8438 2.5631 7.3500 56.6666 -12.3724 37.4395 -0.0000 -0.0000 142.3608 0.0627 13.8256 -1.9385 1.5014 19.4612 -15.5154 -5.4771 -0.2447 -8.1149 -17.3991 -18.0686 -3.9947 13.9249 0.0002 8.3148 19.8932 0.0005 0.0027 6.6727 0.0001 0.0009 19.1129 0.0005 3.9309 34.9298 0.0014 0.0045 20.1140 0.0005 0.0027 26.6468 0.0010 1.7315 52.2473 0.0031 0.0063 27.9267 0.0009 0.0037 38.1034 0.0019 1.3518 39.8877 0.0018 0.0051 27.1246 0.0009 0.0036 -18.6424 7.5079 -2.4878 30.7595 1.1627 -0.0310 -11.4537 -0.8498 4.3408 -0.2498 0.0000 -0.0000 -8.7483 -9.2393 -13.3867 36.9257 -7.9191 -9.4896 -2.3344 -1.0287 19.1441 -6.2658 0.0000 -0.0000 
-16.8750 93.4122 352.5569 147.5069 -1.7073 0.2682 11.6142 -0.4353 -1.5817 1.7656 -0.0146 -0.2730 1.7652 0.0149 -0.2792 1.4362 1.0086 1.2979 -0.0000 0.0000 -0.0000 -4.4932 16.6874 -3.6514 -11.6280 0.6255 0.1762 -50.2831 22.7522 9.9581 0.0000 0.0000 -109.3600 -15.0759 12.0618 17.6217 0.9355 7.6524 6.7299 1.8795 4.1839 -5.7167 13.1041 -8.5370 -43.3159 -13.4323 0.0006 -3.6109 -12.5496 0.0004 -0.0033 -2.8324 0.0000 -0.0008 -0.6257 -0.0000 -5.4970 -5.6107 0.0001 -0.0015 6.4956 0.0001 0.0017 -23.6681 0.0016 -1.0287 -16.0913 0.0006 -0.0042 -12.7673 0.0004 -0.0033 -31.1436 0.0026 0.3131 -22.1327 0.0011 -0.0057 -18.0481 0.0007 -0.0047 17.1674 2.5703 7.2449 56.8797 -13.1214 38.3221 0.0000 0.0000 142.1514 0.1867 13.7330 -2.6262 1.5014 19.4613 -15.5157 -5.4772 -0.2446 -8.1152 -17.3989 -18.0666 -3.9943 13.9338 0.0002 8.3151 19.9024 0.0005 0.0027 6.6817 0.0001 0.0009 19.1140 0.0005 3.9311 34.9309 0.0014 0.0045 20.1151 0.0005 0.0027 26.6357 0.0010 1.7316 52.2362 0.0031 0.0063 27.9156 0.0009 0.0037 38.0773 0.0019 1.3520 39.8616 0.0018 0.0051 27.0985 0.0009 0.0036 -16.6501 7.7618 -3.0355 30.7618 -0.5043 -0.0601 -12.3321 -1.0050 5.2227 -0.2267 -0.0000 0.0000 -9.4666 -7.5701 -11.6437 39.7871 -6.8166 -9.6832 -4.4336 -1.4108 19.6507 -5.8881 -0.0000 -0.0000 
-16.7248 93.4500 351.0538 149.4669 -2.6187 0.1765 12.0143 -1.0226 -1.4363 1.8370 -0.1841 -0.2891 1.8388 -0.1552 -0.2904 1.3696 1.0471 1.3769 -0.0000 0.0000 -0.0000 -4.6373 16.9709 -3.5989 -11.5735 0.6634 -0.0346 -50.0789 21.1110 9.4130 0.0000 -0.0000 -109.7226 -14.6021 10.9285 18.7979 0.8411 7.5123 6.0003 1.7755 4.0153 -6.4447 12.8632 -8.6307 -44.0613 -12.6740 0.0005 -3.6056 -11.7844 0.0003 -0.0031 -2.0728 -0.0000 -0.0005 0.1300 -0.0001 -5.4907 -4.8631 0.0000 -0.0013 7.2530 0.0001 0.0019 -22.9064 0.0015 -1.0265 -15.3297 0.0005 -0.0040 -12.0072 0.0003 -0.0031 -30.3815 0.0025 0.3134 -21.3696 0.0010 -0.0055 -17.2860 0.0007 -0.0045 17.3131 2.5419 7.0677 56.7775 -13.4266 38.9725 -0.0000 -0.0000 141.8525 -0.0392 13.9343 -3.0981 1.5013 19.4614 -15.5160 -5.4772 -0.2445 -8.1155 -17.3987 -18.0646 -3.9938 13.9427 0.0002 8.3154 19.9116 0.0005 0.0027 6.6906 0.0001 0.0009 19.1151 0.0005 3.9313 34.9320 0.0014 0.0045 20.1162 0.0005 0.0027 26.6246 0.0010 1.7317 52.2250 0.0031 0.0063 27.9045 0.0009 0.0037 38.0512 0.0019 1.3521 39.8355 0.0018 0.0051 27.0723 0.0009 0.0036 -14.5544 7.9736 -3.4899 30.4503 -2.4671 -0.0800 -12.9747 -1.1588 6.1522 -0.2578 -0.0000 -0.0000 -10.4724 -6.2915 -9.7648 41.7110 -7.0289 -9.6272 -6.5459 -1.8129 20.0510 -5.0277 -0.0000 -0.0000 
